<svg xmlns="http://www.w3.org/2000/svg" version="1.1" xmlns:xlink="http://www.w3.org/1999/xlink" xmlns:svgjs="http://svgjs.dev/svgjs" width="128" height="128" viewBox="0 0 128 128"><g transform="matrix(0.8046875,0,0,0.8046875,12.760752631578946,38.003775333620524)"><svg viewBox="0 0 95 48" data-background-color="#e7c2ca" preserveAspectRatio="xMidYMid meet" height="64" width="128" xmlns="http://www.w3.org/2000/svg" xmlns:xlink="http://www.w3.org/1999/xlink"><g id="tight-bounds" transform="matrix(1,0,0,1,-0.24049999999999727,0.22949095118863738)"><svg viewBox="0 0 95.481 47.54101809762273" height="47.54101809762273" width="95.481"><g><svg viewBox="0 0 95.481 47.54101809762273" height="47.54101809762273" width="95.481"><g><svg viewBox="0 0 95.481 47.54101809762273" height="47.54101809762273" width="95.481"><g id="textblocktransform"><svg viewBox="0 0 95.481 47.54101809762273" height="47.54101809762273" width="95.481" id="textblock"><g><svg viewBox="0 0 95.481 47.54101809762273" height="47.54101809762273" width="95.481"><g><svg viewBox="0 0 95.481 47.54101809762273" height="47.54101809762273" width="95.481"><g><svg xmlns="http://www.w3.org/2000/svg" xmlns:xlink="http://www.w3.org/1999/xlink" version="1.1" x="0" y="0" viewBox="5.0015079915574 27.593659640010756 89.99873709322358 44.811340359989245" enable-background="new 0 0 100 100" xml:space="preserve" height="47.54101809762273" width="95.481" class="icon-icon-0" data-fill-palette-color="accent" id="icon-0"><g fill="#745d79" data-fill-palette-color="accent"><path d="M80.34 68.817l-1.229-2.05-7.688-13.425c-0.203-0.308-0.512-0.308-0.819-0.103l-2.05 1.639c-0.102 0-0.102 0-0.102 0.104l-1.64 2.665c-0.104 0.203-0.104 0.409 0 0.513L77.573 72.2c0 0.103 0.204 0.205 0.409 0.205h7.276c0.308 0 0.615-0.308 0.513-0.616C85.156 69.945 82.492 68.817 80.34 68.817z" fill="#ffffff" data-fill-palette-color="accent"></path><path d="M22.743 68.51v-1.333l1.024-6.457c0-0.102 0-0.102 0.103-0.204l4.92-5.74-2.562-6.66c-2.357 3.177-5.329 7.174-7.584 10.249-0.104 0-0.104 0.102-0.104 0.204l-0.922 13.22c0 0.309 0.205 0.616 0.513 0.616h7.994c0.308 0 0.512-0.205 0.512-0.513C26.433 69.331 25.101 69.331 22.743 68.51z" fill="#ffffff" data-fill-palette-color="accent"></path><path d="M94.688 41.352l-5.328-3.178v-2.562l-3.793-3.074-0.205-3.895c0-0.614-0.513-0.819-1.025-0.512l-3.177 2.356 0.206-2.05c0-0.717-0.718-1.127-1.229-0.614l-5.535 4.611-8.813 0.513c-11.376-1.332-23.06 1.845-34.436 1.742-2.05 0-5.124 2.972-6.661 4.715-4.51 0.82-11.068 10.146-19.165 18.856-1.229 1.024-0.103 3.689 1.332 2.87 17.218-6.765 17.935-17.218 19.984-16.5l3.485 9.634-1.537 6.866c-0.103 0.103 0 0.308 0 0.41l9.634 10.761c0.101 0.103 0.204 0.103 0.307 0.103h7.481c0.308 0 0.513-0.205 0.513-0.513-0.308-2.768-2.357-3.178-5.228-3.178l-5.328-8.096c2.052-1.803 4.436-4.547 5.655-6.978 6.726 2.273 12.394 1.76 17.086 0.917-1.406 4.057-2.448 8.172-3.885 12.209 0 0 0 0.103 0 0.205l1.025 5.022c0.103 0.205 0.307 0.41 0.512 0.41h7.277c0.307 0 0.513-0.205 0.513-0.513-0.103-1.845-2.769-2.562-4.511-3.178l0.104-2.664 8.013-13.065 13.509-8.764 10.145 1.331c0.103 0 0.309-0.102 0.41-0.204l2.871-3.177C95.099 41.863 94.995 41.454 94.688 41.352z" fill="#ffffff" data-fill-palette-color="accent"></path></g></svg></g></svg></g></svg></g></svg></g></svg></g></svg></g><defs></defs></svg><rect width="95.481" height="47.54101809762273" fill="none" stroke="none" visibility="hidden"></rect></g></svg></g></svg>