<svg xmlns="http://www.w3.org/2000/svg" version="1.1" xmlns:xlink="http://www.w3.org/1999/xlink" xmlns:svgjs="http://svgjs.dev/svgjs" width="2000" height="363" viewBox="0 0 2000 363"><g transform="matrix(1,0,0,1,-1.2121212121212466,0.4195206956835875)"><svg viewBox="0 0 396 72" data-background-color="#e7c2ca" preserveAspectRatio="xMidYMid meet" height="363" width="2000" xmlns="http://www.w3.org/2000/svg" xmlns:xlink="http://www.w3.org/1999/xlink"><g id="tight-bounds" transform="matrix(1,0,0,1,0.2400000000000091,-0.08321071649922374)"><svg viewBox="0 0 395.52 72.16642143299846" height="72.16642143299846" width="395.52"><g><svg viewBox="0 0 667.0244020385481 121.7050063299142" height="72.16642143299846" width="395.52"><g transform="matrix(1,0,0,1,271.50440203854816,3.512828571715552)"><svg viewBox="0 0 395.52 114.6793491864831" height="114.6793491864831" width="395.52"><g id="textblocktransform"><svg viewBox="0 0 395.52 114.6793491864831" height="114.6793491864831" width="395.52" id="textblock"><g><svg viewBox="0 0 395.52 114.6793491864831" height="114.6793491864831" width="395.52"><g transform="matrix(1,0,0,1,0,0)"><svg width="395.52" viewBox="0.95 -34.1 119.84 34.75" height="114.6793491864831" data-palette-color="#4e3b49"><g class="wordmark-text-0" data-fill-palette-color="primary" id="text-0"><path d="M0.95 0L12.65-34.1 17.85-34.1 29.55 0 25.2 0 22.2-9.1 8.35-9.1 5.3 0 0.95 0ZM9.65-13.1L20.85-13.1 15.35-30.1 15.2-30.1 9.65-13.1ZM34.15 0L34.15-20.6Q34.15-22.3 33.85-24.7L33.85-24.7 37.6-25.2 38.15-22.05Q39.5-23.05 40.8-23.8 42.1-24.55 43.6-25.1 45.1-25.65 46.65-25.65L46.65-25.65Q49.15-25.65 50.6-24.78 52.05-23.9 52.75-21.8L52.75-21.8Q54.8-23.25 57.02-24.45 59.25-25.65 61.65-25.65L61.65-25.65Q63.5-25.65 64.8-25.18 66.1-24.7 66.9-23.6 67.7-22.5 68.05-20.7 68.4-18.9 68.4-16.2L68.4-16.2 68.4 0 64.4 0 64.4-15.75Q64.4-17.25 64.35-18.43 64.3-19.6 64-20.43 63.7-21.25 63.02-21.7 62.35-22.15 61.1-22.15L61.1-22.15Q59.95-22.15 58.92-21.83 57.9-21.5 56.8-20.9 55.7-20.3 53.4-18.45L53.4-18.45 53.4 0 49.4 0 49.4-15.75Q49.4-17.25 49.35-18.43 49.3-19.6 49-20.43 48.7-21.25 48.02-21.7 47.35-22.15 46.1-22.15L46.1-22.15Q44.8-22.15 43.4-21.6 42-21.05 40.75-20.3 39.5-19.55 38.15-18.55L38.15-18.55 38.15 0 34.15 0ZM89.44-5.85L89.44-11.55Q88.44-11.5 87.55-11.45 86.64-11.4 85.77-11.33 84.89-11.25 84.19-11.15L84.19-11.15Q80.59-10.7 79.09-9.58 77.59-8.45 77.59-6.35L77.59-6.35Q77.59-4.6 78.67-3.73 79.75-2.85 81.5-2.85L81.5-2.85Q83.89-2.85 85.77-3.68 87.64-4.5 89.44-5.85L89.44-5.85ZM89.89 0.4L89.39-2.35Q87.05-1 85.02-0.18 83 0.65 80.64 0.65L80.64 0.65Q77.3 0.65 75.32-0.98 73.34-2.6 73.34-6.35L73.34-6.35Q73.34-8.3 74.34-9.75 75.34-11.2 76.97-12.18 78.59-13.15 80.64-13.7 82.69-14.25 84.84-14.4L84.84-14.4Q85.75-14.5 87.19-14.58 88.64-14.65 89.44-14.7L89.44-14.7Q89.44-16.45 89.34-17.82 89.25-19.2 88.75-20.18 88.25-21.15 87.27-21.65 86.3-22.15 84.5-22.15L84.5-22.15Q83.05-22.15 81.69-21.98 80.34-21.8 79.3-21.6L79.3-21.6Q78.05-21.35 77-21.05L77-21.05 76.19-24.5Q77.44-24.8 78.89-25.05L78.89-25.05Q80.14-25.3 81.8-25.48 83.44-25.65 85.34-25.65L85.34-25.65Q87.89-25.65 89.47-24.9 91.05-24.15 91.92-22.88 92.8-21.6 93.12-19.98 93.44-18.35 93.44-16.55L93.44-16.55 93.44-4.55Q93.44-3.85 93.47-3.08 93.5-2.3 93.57-1.55 93.64-0.8 93.75 0L93.75 0 89.89 0.4ZM100.54 0L100.54-20.15Q100.59-21.2 100.29-24.7L100.29-24.7 103.99-25.2 104.54-22Q106.04-23 107.52-23.75 108.99-24.5 110.54-25.08 112.09-25.65 113.54-25.65L113.54-25.65Q115.59-25.65 116.97-25.18 118.34-24.7 119.19-23.6 120.04-22.5 120.42-20.7 120.79-18.9 120.79-16.2L120.79-16.2 120.79 0 116.79 0 116.79-15.75Q116.79-17.25 116.74-18.43 116.69-19.6 116.32-20.43 115.94-21.25 115.17-21.7 114.39-22.15 112.99-22.15L112.99-22.15Q111.69-22.15 110.24-21.58 108.79-21 107.39-20.25 105.99-19.5 104.54-18.5L104.54-18.5 104.54 0 100.54 0Z" fill="#4e3b49" data-fill-palette-color="primary"></path></g></svg></g></svg></g></svg></g></svg></g><g><svg viewBox="0 0 244.43135999999998 121.7050063299142" height="121.7050063299142" width="244.43135999999998"><g><svg xmlns="http://www.w3.org/2000/svg" xmlns:xlink="http://www.w3.org/1999/xlink" version="1.1" x="0" y="0" viewBox="5.0015079915574 27.593659640010756 89.99873709322358 44.811340359989245" enable-background="new 0 0 100 100" xml:space="preserve" height="121.7050063299142" width="244.43135999999998" class="icon-icon-0" data-fill-palette-color="accent" id="icon-0"><g fill="#745d79" data-fill-palette-color="accent"><path d="M80.34 68.817l-1.229-2.05-7.688-13.425c-0.203-0.308-0.512-0.308-0.819-0.103l-2.05 1.639c-0.102 0-0.102 0-0.102 0.104l-1.64 2.665c-0.104 0.203-0.104 0.409 0 0.513L77.573 72.2c0 0.103 0.204 0.205 0.409 0.205h7.276c0.308 0 0.615-0.308 0.513-0.616C85.156 69.945 82.492 68.817 80.34 68.817z" fill="#745d79" data-fill-palette-color="accent"></path><path d="M22.743 68.51v-1.333l1.024-6.457c0-0.102 0-0.102 0.103-0.204l4.92-5.74-2.562-6.66c-2.357 3.177-5.329 7.174-7.584 10.249-0.104 0-0.104 0.102-0.104 0.204l-0.922 13.22c0 0.309 0.205 0.616 0.513 0.616h7.994c0.308 0 0.512-0.205 0.512-0.513C26.433 69.331 25.101 69.331 22.743 68.51z" fill="#745d79" data-fill-palette-color="accent"></path><path d="M94.688 41.352l-5.328-3.178v-2.562l-3.793-3.074-0.205-3.895c0-0.614-0.513-0.819-1.025-0.512l-3.177 2.356 0.206-2.05c0-0.717-0.718-1.127-1.229-0.614l-5.535 4.611-8.813 0.513c-11.376-1.332-23.06 1.845-34.436 1.742-2.05 0-5.124 2.972-6.661 4.715-4.51 0.82-11.068 10.146-19.165 18.856-1.229 1.024-0.103 3.689 1.332 2.87 17.218-6.765 17.935-17.218 19.984-16.5l3.485 9.634-1.537 6.866c-0.103 0.103 0 0.308 0 0.41l9.634 10.761c0.101 0.103 0.204 0.103 0.307 0.103h7.481c0.308 0 0.513-0.205 0.513-0.513-0.308-2.768-2.357-3.178-5.228-3.178l-5.328-8.096c2.052-1.803 4.436-4.547 5.655-6.978 6.726 2.273 12.394 1.76 17.086 0.917-1.406 4.057-2.448 8.172-3.885 12.209 0 0 0 0.103 0 0.205l1.025 5.022c0.103 0.205 0.307 0.41 0.512 0.41h7.277c0.307 0 0.513-0.205 0.513-0.513-0.103-1.845-2.769-2.562-4.511-3.178l0.104-2.664 8.013-13.065 13.509-8.764 10.145 1.331c0.103 0 0.309-0.102 0.41-0.204l2.871-3.177C95.099 41.863 94.995 41.454 94.688 41.352z" fill="#745d79" data-fill-palette-color="accent"></path></g></svg></g></svg></g></svg></g><defs></defs></svg><rect width="395.52" height="72.16642143299846" fill="none" stroke="none" visibility="hidden"></rect></g></svg></g></svg>